<svg width="470" height="313" viewBox="0 0 470 313" fill="none" xmlns="http://www.w3.org/2000/svg">
<g clip-path="url(#clip0_121_193)">
<path d="M174.44 208.84C183.922 208.84 191.609 201.154 191.609 191.673C191.609 182.192 183.922 174.506 174.44 174.506C164.958 174.506 157.271 182.192 157.271 191.673C157.271 201.154 164.958 208.84 174.44 208.84Z" fill="#16C687"/>
<path d="M172.804 198.919L167.665 192.313L170.653 189.989L173.087 193.117L181.306 184.441L184.055 187.045L172.804 198.919Z" fill="white"/>
<path d="M470.232 54.5475H215V0H470.232V54.5475Z" fill="white"/>
<path d="M246.71 39C253.337 39 258.71 33.6274 258.71 27C258.71 20.3726 253.337 15 246.71 15C240.083 15 234.71 20.3726 234.71 27C234.71 33.6274 240.083 39 246.71 39Z" fill="#E6E6E6"/>
<path d="M280.078 18.0359C279.466 18.0359 278.878 18.2793 278.445 18.7124C278.012 19.1455 277.769 19.7329 277.769 20.3454C277.769 20.9579 278.012 21.5453 278.445 21.9784C278.878 22.4115 279.466 22.6548 280.078 22.6548H448.713C449.325 22.6534 449.911 22.4094 450.343 21.9765C450.775 21.5435 451.017 20.9569 451.017 20.3454C451.017 19.7338 450.775 19.1473 450.343 18.7143C449.911 18.2814 449.325 18.0374 448.713 18.0359H280.078Z" fill="#E6E6E6"/>
<path d="M280.078 31.8926C279.466 31.8913 278.878 32.1334 278.444 32.5656C278.01 32.9978 277.765 33.5847 277.764 34.1972C277.763 34.8097 278.005 35.3976 278.437 35.8316C278.869 36.2656 279.456 36.5102 280.069 36.5115H386.681C386.985 36.512 387.286 36.4526 387.567 36.3368C387.847 36.2209 388.102 36.0509 388.317 35.8364C388.532 35.6219 388.702 35.3671 388.819 35.0867C388.935 34.8063 388.995 34.5056 388.995 34.202C388.995 33.8984 388.935 33.5978 388.819 33.3173C388.702 33.0369 388.532 32.7821 388.317 32.5676C388.102 32.3531 387.847 32.1831 387.567 32.0673C387.286 31.9514 386.985 31.8921 386.681 31.8926H280.078Z" fill="#E6E6E6"/>
<path d="M470.232 48.5475C470.232 51.8612 467.546 54.5475 464.232 54.5475H221C217.686 54.5475 215 51.8612 215 48.5475V6C215 2.68629 217.686 0 221 0H464.232C467.546 0 470.232 2.68629 470.232 6V48.5475ZM218.897 44.6512C218.897 47.9649 221.583 50.6512 224.897 50.6512H460.336C463.649 50.6512 466.336 47.9649 466.336 44.6512V9.89624C466.336 6.58254 463.649 3.89625 460.336 3.89625H224.897C221.583 3.89625 218.897 6.58254 218.897 9.89625V44.6512Z" fill="#F2F2F2"/>
<path d="M470.232 122.732H215V68.1844H470.232V122.732Z" fill="white"/>
<path d="M246.711 107C253.339 107 258.713 101.627 258.713 95C258.713 88.3726 253.339 83 246.711 83C240.083 83 234.71 88.3726 234.71 95C234.71 101.627 240.083 107 246.711 107Z" fill="#E6E6E6"/>
<path d="M280.078 86.2203C279.466 86.2203 278.878 86.4636 278.445 86.8967C278.012 87.3298 277.769 87.9172 277.769 88.5297C277.769 89.1422 278.012 89.7297 278.445 90.1628C278.878 90.5959 279.466 90.8392 280.078 90.8392H448.713C449.325 90.8377 449.911 90.5938 450.343 90.1608C450.775 89.7279 451.017 89.1413 451.017 88.5297C451.017 87.9182 450.775 87.3316 450.343 86.8987C449.911 86.4657 449.325 86.2218 448.713 86.2203H280.078Z" fill="#E6E6E6"/>
<path d="M280.078 100.077C279.466 100.076 278.878 100.318 278.444 100.75C278.01 101.182 277.765 101.769 277.764 102.382C277.763 102.994 278.005 103.582 278.437 104.016C278.869 104.45 279.456 104.695 280.069 104.696H386.681C386.985 104.696 387.286 104.637 387.567 104.521C387.847 104.405 388.102 104.235 388.317 104.021C388.532 103.806 388.702 103.551 388.819 103.271C388.935 102.991 388.995 102.69 388.995 102.386C388.995 102.083 388.935 101.782 388.819 101.502C388.702 101.221 388.532 100.966 388.317 100.752C388.102 100.537 387.847 100.367 387.567 100.252C387.286 100.136 386.985 100.076 386.681 100.077H280.078Z" fill="#E6E6E6"/>
<path d="M470.232 116.732C470.232 120.046 467.546 122.732 464.232 122.732H221C217.686 122.732 215 120.046 215 116.732V74.1844C215 70.8706 217.686 68.1844 221 68.1844H464.232C467.546 68.1844 470.232 70.8706 470.232 74.1844V116.732ZM218.897 112.836C218.897 116.149 221.583 118.836 224.897 118.836H460.336C463.649 118.836 466.336 116.149 466.336 112.836V78.0806C466.336 74.7669 463.649 72.0806 460.336 72.0806H224.897C221.583 72.0806 218.897 74.7669 218.897 78.0806V112.836Z" fill="#F2F2F2"/>
<path d="M470.232 190.916H215V136.369H470.232V190.916Z" fill="white"/>
<path d="M246.711 176C253.339 176 258.713 170.627 258.713 164C258.713 157.373 253.339 152 246.711 152C240.083 152 234.71 157.373 234.71 164C234.71 170.627 240.083 176 246.711 176Z" fill="#E6E6E6"/>
<path d="M280.078 154.405C279.466 154.405 278.878 154.648 278.445 155.081C278.012 155.514 277.769 156.102 277.769 156.714C277.769 157.327 278.012 157.914 278.445 158.347C278.878 158.78 279.466 159.024 280.078 159.024H448.713C449.325 159.022 449.911 158.778 450.343 158.345C450.775 157.912 451.017 157.326 451.017 156.714C451.017 156.103 450.775 155.516 450.343 155.083C449.911 154.65 449.325 154.406 448.713 154.405H280.078Z" fill="#E6E6E6"/>
<path d="M280.078 168.261C279.466 168.26 278.878 168.502 278.444 168.934C278.01 169.366 277.765 169.953 277.764 170.566C277.763 171.178 278.005 171.766 278.437 172.2C278.869 172.634 279.456 172.879 280.069 172.88H386.681C386.985 172.881 387.286 172.821 387.567 172.705C387.847 172.59 388.102 172.42 388.317 172.205C388.532 171.991 388.702 171.736 388.819 171.455C388.935 171.175 388.995 170.874 388.995 170.571C388.995 170.267 388.935 169.966 388.819 169.686C388.702 169.406 388.532 169.151 388.317 168.936C388.102 168.722 387.847 168.552 387.567 168.436C387.286 168.32 386.985 168.261 386.681 168.261H280.078Z" fill="#E6E6E6"/>
<path d="M470.232 184.916C470.232 188.23 467.546 190.916 464.232 190.916H221C217.686 190.916 215 188.23 215 184.916V142.369C215 139.055 217.686 136.369 221 136.369H464.232C467.546 136.369 470.232 139.055 470.232 142.369V184.916ZM218.897 181.02C218.897 184.334 221.583 187.02 224.897 187.02H460.336C463.649 187.02 466.336 184.334 466.336 181.02V146.265C466.336 142.951 463.649 140.265 460.336 140.265H224.897C221.583 140.265 218.897 142.951 218.897 146.265V181.02Z" fill="#F2F2F2"/>
<path d="M79.3816 183.858C78.7997 183.11 78.3889 182.244 78.178 181.32C77.9671 180.397 77.9613 179.438 78.161 178.512C78.3607 177.586 78.7611 176.715 79.3339 175.96C79.9067 175.205 80.638 174.586 81.4763 174.144L80.1229 159.397L88.8849 156.389L90.5036 177.241C91.152 178.699 91.2432 180.343 90.7599 181.863C90.2767 183.383 89.2526 184.673 87.8817 185.489C86.5107 186.305 84.8882 186.589 83.3216 186.288C81.755 185.988 80.3531 185.123 79.3816 183.858Z" fill="#FFB8B8"/>
<path d="M88.7877 99.2202C88.7877 99.2202 94.8006 86.603 100.143 91.0413C105.486 95.4795 92.8184 132.786 92.8184 132.786L90.8917 169.002L80.7374 167.987L77.8665 132.703L88.7877 99.2202Z" fill="#16C687"/>
<path d="M8.13599 285.886L15.6735 291.987L42.795 265.82L31.6706 256.815L8.13599 285.886Z" fill="#FFB8B8"/>
<path d="M8.20523 281.869L23.0497 293.884L23.0503 293.885C25.559 295.915 27.1582 298.86 27.4961 302.069C27.834 305.279 26.8829 308.492 24.8521 311L24.6032 311.308L0.298584 291.636L8.20523 281.869Z" fill="#2F2E41"/>
<path d="M112.892 302.822H122.59L127.204 265.42L112.89 265.42L112.892 302.822Z" fill="#FFB8B8"/>
<path d="M110.418 299.656L129.517 299.655H129.518C132.746 299.655 135.841 300.938 138.124 303.22C140.406 305.502 141.688 308.597 141.689 311.825V312.22L110.419 312.221L110.418 299.656Z" fill="#2F2E41"/>
<path d="M129.909 127.479C129.909 127.479 148.102 149.626 144.147 171.772C140.192 193.918 137.028 210.528 137.028 210.528L130.7 260.356C130.7 260.356 133.073 273.927 129.909 277.424C129.909 277.424 134.655 285.666 125.954 288.83C117.253 291.994 112.558 287.737 112.558 287.737C112.558 287.737 106.178 278.548 110.133 276.175L111.799 178.387L48.4338 261.147C48.4338 261.147 47.269 271.214 39.1502 271.322L29.4493 278.548L18.375 272.22L23.9121 265.102C23.9121 265.102 20.748 257.193 27.8673 255.611L69.0003 201.827L79.2836 174.145C79.2836 174.145 84.8208 152.789 99.8501 144.089V134.831L129.909 127.479Z" fill="#2F2E41"/>
<path d="M98.6637 89.1192C101.059 86.289 104.411 84.4385 108.083 83.9202C111.754 83.4018 115.488 84.2519 118.573 86.3084L119.23 86.7464C126.251 94.6969 130.971 104.412 132.879 114.845L135.842 131.039L98.6637 139.091L89.9479 109.036C88.8417 105.221 89.1079 101.139 90.7004 97.5C92.2928 93.8611 95.1106 90.8955 98.6637 89.1192Z" fill="#16C687"/>
<path d="M159.745 187.301C158.714 186.964 157.77 186.405 156.978 185.664C156.187 184.922 155.568 184.017 155.164 183.01C154.761 182.004 154.583 180.921 154.643 179.839C154.704 178.756 155.001 177.7 155.513 176.744L144.789 163.62L151.175 155.158L166.06 173.905C167.609 174.873 168.748 176.374 169.263 178.126C169.777 179.877 169.632 181.757 168.853 183.408C168.075 185.059 166.717 186.367 165.039 187.085C163.36 187.802 161.476 187.879 159.745 187.301Z" fill="#FFB8B8"/>
<path d="M114.484 100.983C114.484 100.983 112.111 85.1646 120.021 85.9555C127.932 86.7464 139.797 130.248 139.797 130.248L161.154 165.84L150.871 171.376L125.558 139.739L114.484 100.983Z" fill="#16C687"/>
<path d="M128.97 82.9106H91.3017C90.5268 82.9097 89.784 82.6016 89.2361 82.0537C88.6882 81.5059 88.38 80.7632 88.3792 79.9884V63.7541C88.3792 57.9845 90.6713 52.4513 94.7515 48.3716C98.8316 44.2919 104.365 42 110.136 42C115.906 42 121.44 44.2919 125.52 48.3716C129.6 52.4513 131.892 57.9845 131.892 63.7541V79.9884C131.891 80.7632 131.583 81.5059 131.035 82.0537C130.487 82.6016 129.744 82.9097 128.97 82.9106Z" fill="#2F2E41"/>
<path d="M114.606 82.5327C123.416 82.5327 130.557 75.3919 130.557 66.5834C130.557 57.7748 123.416 50.6341 114.606 50.6341C105.797 50.6341 98.655 57.7748 98.655 66.5834C98.655 75.3919 105.797 82.5327 114.606 82.5327Z" fill="#FFB8B8"/>
<path d="M137.039 65.3775H116.965L116.759 62.071L115.73 65.3775H112.639L112.231 58.8241L110.191 65.3775H104.21V65.0528C104.21 55.5639 110.939 47.8444 119.209 47.8444H122.04C130.31 47.8444 137.039 55.5639 137.039 65.0528V65.3775Z" fill="#2F2E41"/>
<path d="M117.796 85.9411C117.55 85.9409 117.305 85.922 117.063 85.8846L93.1694 82.2048V57.3208C93.1694 54.7788 94.1794 52.3409 95.977 50.5435C97.7747 48.746 100.213 47.7362 102.755 47.7362H119.472L118.82 48.3989C109.76 57.6219 116.586 72.5771 121.461 80.6708C121.819 81.2526 121.981 81.9338 121.922 82.6143C121.864 83.2948 121.589 83.9386 121.137 84.451C120.722 84.9276 120.208 85.3079 119.631 85.5652C119.054 85.8226 118.428 85.9509 117.796 85.9411Z" fill="#2F2E41"/>
</g>
<defs>
<clipPath id="clip0_121_193">
<rect width="470" height="313" fill="white"/>
</clipPath>
</defs>
</svg>
