<svg width="233" height="211" viewBox="0 0 233 211" fill="none" xmlns="http://www.w3.org/2000/svg">
<g clip-path="url(#clip0_101_2)">
<path d="M144.767 122.613H59.4216C56.5275 122.609 53.7528 121.453 51.7063 119.397C49.6598 117.342 48.5086 114.554 48.5054 111.647V10.9654C48.5086 8.05817 49.6598 5.271 51.7063 3.2153C53.7528 1.15961 56.5275 0.00328395 59.4216 0H138.821L155.683 13.5003V111.647C155.68 114.554 154.529 117.342 152.482 119.397C150.436 121.453 147.661 122.609 144.767 122.613Z" fill="#E6E6E6"/>
<path d="M59.4216 3.15669C57.3606 3.15903 55.3847 3.98247 53.9274 5.44637C52.47 6.91028 51.6503 8.89508 51.6479 10.9654V111.647C51.6503 113.718 52.47 115.702 53.9274 117.166C55.3847 118.63 57.3606 119.454 59.4216 119.456H144.767C146.828 119.454 148.804 118.63 150.261 117.166C151.719 115.702 152.538 113.718 152.541 111.647V15.0211L137.722 3.15669H59.4216Z" fill="white"/>
<path d="M128.167 32.4323H89.3108C89.072 32.4323 88.8357 32.3851 88.6151 32.2933C88.3946 32.2015 88.1942 32.067 88.0254 31.8975C87.8566 31.7279 87.7227 31.5266 87.6313 31.305C87.5399 31.0835 87.4929 30.8461 87.4929 30.6063C87.4929 30.3665 87.5399 30.129 87.6313 29.9075C87.7227 29.6859 87.8566 29.4846 88.0254 29.3151C88.1942 29.1455 88.3946 29.011 88.6151 28.9192C88.8357 28.8275 89.072 28.7802 89.3108 28.7802H128.167C128.406 28.7802 128.642 28.8275 128.863 28.9192C129.084 29.011 129.284 29.1455 129.453 29.3151C129.622 29.4846 129.755 29.6859 129.847 29.9075C129.938 30.129 129.985 30.3665 129.985 30.6063C129.985 30.8461 129.938 31.0835 129.847 31.305C129.755 31.5266 129.622 31.7279 129.453 31.8975C129.284 32.067 129.084 32.2015 128.863 32.2933C128.642 32.3851 128.406 32.4323 128.167 32.4323Z" fill="#CCCCCC"/>
<path d="M135.666 38.5951H89.3108C88.8286 38.5951 88.3663 38.4027 88.0254 38.0603C87.6844 37.7178 87.4929 37.2534 87.4929 36.7691C87.4929 36.2848 87.6844 35.8203 88.0254 35.4779C88.3663 35.1354 88.8286 34.9431 89.3108 34.9431H135.666C136.148 34.9431 136.61 35.1354 136.951 35.4779C137.292 35.8203 137.484 36.2848 137.484 36.7691C137.484 37.2534 137.292 37.7178 136.951 38.0603C136.61 38.4027 136.148 38.5951 135.666 38.5951Z" fill="#CCCCCC"/>
<path d="M128.167 60.0509H89.3108C88.8286 60.0509 88.3663 59.8585 88.0254 59.5161C87.6844 59.1736 87.4929 58.7092 87.4929 58.2249C87.4929 57.7406 87.6844 57.2761 88.0254 56.9337C88.3663 56.5912 88.8286 56.3989 89.3108 56.3989H128.167C128.649 56.3989 129.112 56.5912 129.453 56.9337C129.794 57.2761 129.985 57.7406 129.985 58.2249C129.985 58.7092 129.794 59.1736 129.453 59.5161C129.112 59.8585 128.649 60.0509 128.167 60.0509Z" fill="#CCCCCC"/>
<path d="M135.666 66.2137H89.3108C88.8286 66.2137 88.3663 66.0214 88.0254 65.6789C87.6844 65.3365 87.4929 64.872 87.4929 64.3877C87.4929 63.9034 87.6844 63.439 88.0254 63.0965C88.3663 62.7541 88.8286 62.5617 89.3108 62.5617H135.666C136.148 62.5617 136.61 62.7541 136.951 63.0965C137.292 63.439 137.484 63.9034 137.484 64.3877C137.484 64.872 137.292 65.3365 136.951 65.6789C136.61 66.0214 136.148 66.2137 135.666 66.2137Z" fill="#CCCCCC"/>
<path d="M128.167 87.6695H89.3108C88.8286 87.6695 88.3663 87.4771 88.0254 87.1347C87.6844 86.7922 87.4929 86.3278 87.4929 85.8435C87.4929 85.3592 87.6844 84.8948 88.0254 84.5523C88.3663 84.2099 88.8286 84.0175 89.3108 84.0175H128.167C128.649 84.0175 129.112 84.2099 129.453 84.5523C129.794 84.8948 129.985 85.3592 129.985 85.8435C129.985 86.3278 129.794 86.7922 129.453 87.1347C129.112 87.4771 128.649 87.6695 128.167 87.6695Z" fill="#CCCCCC"/>
<path d="M135.666 93.8324H89.3108C88.8286 93.8324 88.3663 93.64 88.0254 93.2975C87.6844 92.9551 87.4929 92.4906 87.4929 92.0063C87.4929 91.522 87.6844 91.0576 88.0254 90.7151C88.3663 90.3727 88.8286 90.1803 89.3108 90.1803H135.666C136.148 90.1803 136.61 90.3727 136.951 90.7151C137.292 91.0576 137.484 91.522 137.484 92.0063C137.484 92.4906 137.292 92.9551 136.951 93.2975C136.61 93.64 136.148 93.8324 135.666 93.8324Z" fill="#CCCCCC"/>
<path d="M73.1299 40.1417C76.6784 40.1417 79.555 37.2521 79.555 33.6877C79.555 30.1232 76.6784 27.2337 73.1299 27.2337C69.5814 27.2337 66.7048 30.1232 66.7048 33.6877C66.7048 37.2521 69.5814 40.1417 73.1299 40.1417Z" fill="#319795"/>
<path d="M72.4932 36.1497C72.3487 36.1499 72.208 36.103 72.0923 36.0159L72.0851 36.0104L70.5752 34.8502C70.4341 34.7413 70.3418 34.5807 70.3186 34.4036C70.2954 34.2264 70.3431 34.0473 70.4514 33.9055C70.5596 33.7637 70.7194 33.6709 70.8957 33.6474C71.072 33.6239 71.2504 33.6717 71.3917 33.7803L72.3697 34.5337L74.6809 31.5049C74.7345 31.4347 74.8013 31.3758 74.8776 31.3315C74.9539 31.2872 75.0381 31.2585 75.1254 31.2469C75.2127 31.2353 75.3015 31.2411 75.3866 31.264C75.4716 31.2869 75.5514 31.3263 75.6213 31.3802L75.6072 31.4003L75.6219 31.3803C75.7629 31.4892 75.8552 31.6498 75.8785 31.827C75.9017 32.0041 75.8541 32.1833 75.746 32.3251L73.0275 35.886C72.9646 35.9681 72.8838 36.0345 72.7912 36.08C72.6987 36.1256 72.5969 36.1492 72.4938 36.1489L72.4932 36.1497Z" fill="white"/>
<path d="M73.7916 67.7603C77.34 67.7603 80.2166 64.8707 80.2166 61.3063C80.2166 57.7419 77.34 54.8523 73.7916 54.8523C70.2431 54.8523 67.3665 57.7419 67.3665 61.3063C67.3665 64.8707 70.2431 67.7603 73.7916 67.7603Z" fill="#CCCCCC"/>
<path d="M73.1299 95.3789C76.6784 95.3789 79.555 92.4894 79.555 88.9249C79.555 85.3605 76.6784 82.4709 73.1299 82.4709C69.5814 82.4709 66.7048 85.3605 66.7048 88.9249C66.7048 92.4894 69.5814 95.3789 73.1299 95.3789Z" fill="#CCCCCC"/>
<path d="M155.355 13.9348H142.147C141.182 13.9348 140.258 13.55 139.576 12.8651C138.894 12.1802 138.511 11.2513 138.511 10.2827V0.483372C138.511 0.440469 138.523 0.398432 138.546 0.362086C138.568 0.325741 138.601 0.296557 138.639 0.27788C138.678 0.259203 138.721 0.251788 138.763 0.256489C138.805 0.261189 138.846 0.277812 138.879 0.304453L155.496 13.5276C155.533 13.557 155.56 13.5973 155.573 13.6428C155.586 13.6883 155.585 13.7368 155.569 13.7816C155.554 13.8263 155.525 13.8651 155.487 13.8926C155.448 13.92 155.402 13.9348 155.355 13.9348Z" fill="#E6E6E6"/>
<path d="M65.9435 141.477L15.4489 152.168C13.9896 152.476 12.4687 152.189 11.2196 151.371C9.97062 150.553 9.09554 149.271 8.78639 147.806L0.121597 106.513C-0.184269 105.048 0.101183 103.52 0.915328 102.265C1.72947 101.01 3.00582 100.131 4.46436 99.8209L54.959 89.1297C56.4182 88.8224 57.9392 89.1091 59.1882 89.9269C60.4372 90.7448 61.3123 92.0268 61.6214 93.4919L70.2862 134.785C70.5921 136.25 70.3067 137.778 69.4925 139.033C68.6784 140.288 67.402 141.167 65.9435 141.477Z" fill="white"/>
<path d="M65.9435 141.477L15.4489 152.168C13.9896 152.476 12.4687 152.189 11.2196 151.371C9.97062 150.553 9.09554 149.271 8.78639 147.806L0.121597 106.513C-0.184269 105.048 0.101183 103.52 0.915328 102.265C1.72947 101.01 3.00582 100.131 4.46436 99.8209L54.959 89.1297C56.4182 88.8224 57.9392 89.1091 59.1882 89.9269C60.4372 90.7448 61.3123 92.0268 61.6214 93.4919L70.2862 134.785C70.5921 136.25 70.3067 137.778 69.4925 139.033C68.6784 140.288 67.402 141.167 65.9435 141.477ZM4.60081 100.471C3.31387 100.745 2.18769 101.521 1.46933 102.628C0.750963 103.735 0.499087 105.083 0.768959 106.376L9.43376 147.669C9.70655 148.962 10.4787 150.093 11.5808 150.815C12.6828 151.536 14.0249 151.789 15.3124 151.518L65.807 140.827C67.0939 140.553 68.2201 139.777 68.9385 138.67C69.6569 137.563 69.9087 136.215 69.6389 134.922L60.9741 93.629C60.7013 92.3363 59.9292 91.2051 58.8271 90.4835C57.725 89.7619 56.383 89.5089 55.0954 89.78L4.60081 100.471Z" fill="#E6E6E6"/>
<path d="M51.8215 102.745L26.3376 108.141C26.1146 108.193 25.8802 108.158 25.6819 108.043C25.4836 107.928 25.3361 107.742 25.2693 107.522C25.2388 107.407 25.2318 107.287 25.2488 107.17C25.2659 107.052 25.3066 106.939 25.3684 106.838C25.4303 106.737 25.512 106.65 25.6087 106.581C25.7053 106.513 25.8148 106.465 25.9304 106.44L51.8716 100.948C52.8844 101.521 52.5646 102.588 51.8215 102.745Z" fill="#CCCCCC"/>
<path d="M52.7638 107.235L27.2798 112.631C27.0568 112.683 26.8225 112.648 26.6242 112.533C26.4259 112.418 26.2784 112.232 26.2116 112.012C26.181 111.897 26.1741 111.777 26.1911 111.66C26.2081 111.542 26.2488 111.43 26.3107 111.328C26.3726 111.227 26.4543 111.14 26.5509 111.071C26.6476 111.003 26.757 110.955 26.8727 110.931L52.8138 105.438C53.8267 106.011 53.5069 107.078 52.7638 107.235Z" fill="#CCCCCC"/>
<path d="M22.3072 116.354L14.5298 118.001C14.2758 118.054 14.011 118.004 13.7936 117.862C13.5762 117.72 13.4239 117.496 13.3701 117.241L11.4355 108.022C11.3823 107.767 11.4319 107.501 11.5737 107.283C11.7154 107.064 11.9376 106.911 12.1914 106.857L19.9689 105.21C20.2229 105.157 20.4876 105.207 20.705 105.349C20.9224 105.492 21.0747 105.715 21.1286 105.97L23.0631 115.189C23.1164 115.444 23.0667 115.71 22.925 115.929C22.7833 116.147 22.5611 116.3 22.3072 116.354Z" fill="#CCCCCC"/>
<path d="M54.6188 116.445L15.7256 124.679C15.5026 124.731 15.2683 124.696 15.07 124.581C14.8717 124.467 14.7242 124.28 14.6574 124.06C14.6268 123.946 14.6199 123.826 14.6369 123.708C14.6539 123.591 14.6946 123.478 14.7565 123.377C14.8184 123.276 14.9001 123.188 14.9967 123.12C15.0934 123.051 15.2028 123.004 15.3185 122.979L54.6692 114.647C55.6821 115.221 55.3619 116.287 54.6188 116.445Z" fill="#CCCCCC"/>
<path d="M55.5613 120.936L16.6681 129.171C16.4451 129.223 16.2108 129.188 16.0125 129.073C15.8142 128.958 15.6667 128.772 15.5999 128.552C15.5693 128.437 15.5624 128.317 15.5794 128.2C15.5964 128.082 15.6371 127.97 15.699 127.868C15.7609 127.767 15.8426 127.68 15.9392 127.611C16.0359 127.543 16.1454 127.495 16.261 127.471L55.6117 119.139C56.6246 119.712 56.3044 120.779 55.5613 120.936Z" fill="#CCCCCC"/>
<path d="M56.5032 125.425L17.61 133.659C17.387 133.711 17.1527 133.676 16.9544 133.561C16.7561 133.447 16.6086 133.26 16.5418 133.04C16.5112 132.926 16.5043 132.806 16.5213 132.688C16.5383 132.571 16.579 132.458 16.6409 132.357C16.7028 132.256 16.7845 132.168 16.8811 132.1C16.9778 132.031 17.0872 131.984 17.2029 131.959L56.5536 123.627C57.5665 124.201 57.2463 125.267 56.5032 125.425Z" fill="#CCCCCC"/>
<path d="M57.4456 129.916L18.5524 138.151C18.3294 138.203 18.0951 138.168 17.8968 138.053C17.6985 137.938 17.551 137.751 17.4842 137.531C17.4536 137.417 17.4466 137.297 17.4637 137.18C17.4807 137.062 17.5214 136.949 17.5833 136.848C17.6451 136.747 17.7269 136.659 17.8235 136.591C17.9201 136.523 18.0296 136.475 18.1453 136.45L57.496 128.118C58.5088 128.692 58.1887 129.758 57.4456 129.916Z" fill="#CCCCCC"/>
<path d="M58.3875 134.405L19.4943 142.639C19.2713 142.691 19.0369 142.656 18.8387 142.541C18.6404 142.427 18.4929 142.24 18.4261 142.02C18.3955 141.906 18.3885 141.786 18.4056 141.668C18.4226 141.551 18.4633 141.438 18.5252 141.337C18.587 141.236 18.6688 141.148 18.7654 141.08C18.862 141.011 18.9715 140.964 19.0872 140.939L58.4378 132.607C59.4507 133.181 59.1306 134.247 58.3875 134.405Z" fill="#CCCCCC"/>
<path d="M65.2531 113.847C65.1647 114.008 65.0891 114.176 65.027 114.349L49.1047 118.318L46.3348 115.439L41.4639 119.071L45.8744 124.645C46.2308 125.095 46.7229 125.418 47.2769 125.563C47.831 125.709 48.4171 125.67 48.9472 125.452L66.2244 118.36C66.7923 118.78 67.474 119.016 68.1788 119.038C68.8836 119.059 69.5782 118.864 70.1701 118.479C70.762 118.094 71.2232 117.537 71.4924 116.883C71.7615 116.228 71.8259 115.506 71.6769 114.814C71.5279 114.122 71.1726 113.491 70.6582 113.007C70.1439 112.522 69.4949 112.207 68.7975 112.102C68.1001 111.997 67.3875 112.108 66.7544 112.419C66.1212 112.731 65.5975 113.229 65.2531 113.847Z" fill="#A0616A"/>
<path d="M10.9045 149.166C11.4009 149.012 11.8576 148.751 12.2425 148.401C12.6274 148.05 12.9312 147.619 13.1323 147.138C13.3335 146.657 13.4272 146.137 13.4068 145.616C13.3864 145.094 13.2525 144.584 13.0144 144.12L23.9717 113.527L16.3622 112.173L7.98427 142.67C7.23508 143.123 6.67749 143.837 6.41716 144.676C6.15684 145.515 6.21187 146.42 6.57182 147.221C6.93177 148.022 7.57164 148.662 8.37018 149.021C9.16872 149.379 10.0704 149.431 10.9045 149.166Z" fill="#A0616A"/>
<path d="M22.5801 118.958L15.0669 116.061C14.8531 115.979 14.6595 115.851 14.4993 115.687C14.3391 115.523 14.2161 115.325 14.1386 115.109C14.061 114.893 14.0308 114.662 14.0501 114.433C14.0693 114.204 14.1374 113.981 14.2499 113.781L18.1913 106.761C18.6174 105.665 19.4587 104.783 20.5309 104.309C21.6031 103.835 22.8187 103.808 23.9111 104.233C25.0035 104.657 25.8837 105.5 26.3586 106.576C26.8336 107.651 26.8645 108.872 26.4447 109.971L24.7062 117.812C24.6563 118.036 24.5589 118.248 24.4205 118.431C24.2822 118.614 24.1061 118.765 23.9043 118.874C23.7026 118.983 23.4798 119.046 23.2513 119.061C23.0228 119.075 22.7938 119.04 22.5801 118.958Z" fill="#319795"/>
<path d="M39.5384 206.603L43.5939 206.602L45.5231 190.889L39.5377 190.89L39.5384 206.603Z" fill="#A0616A"/>
<path d="M38.5038 205.273L46.4904 205.272H46.4908C47.1592 205.272 47.821 205.404 48.4386 205.661C49.0561 205.918 49.6172 206.295 50.0898 206.77C50.5624 207.244 50.9373 207.808 51.1931 208.428C51.4489 209.049 51.5806 209.713 51.5806 210.385V210.551L38.504 210.551L38.5038 205.273Z" fill="#2F2E41"/>
<path d="M16.7134 206.603L20.769 206.602L22.6982 190.889L16.7128 190.89L16.7134 206.603Z" fill="#A0616A"/>
<path d="M15.679 205.273L23.6656 205.272H23.666C24.3344 205.272 24.9962 205.404 25.6137 205.661C26.2313 205.918 26.7923 206.295 27.265 206.77C27.7376 207.244 28.1125 207.808 28.3683 208.428C28.6241 209.049 28.7557 209.713 28.7557 210.385V210.551L15.6792 210.551L15.679 205.273Z" fill="#2F2E41"/>
<path d="M20.965 200.278H15.8328C15.6314 200.278 15.432 200.237 15.2469 200.157C15.0617 200.078 14.8946 199.961 14.7555 199.815C14.6165 199.668 14.5086 199.495 14.4382 199.306C14.3677 199.116 14.3364 198.914 14.3459 198.712L16.7837 146.101L16.9373 146.097L41.7202 145.448L46.5698 198.089C46.5885 198.286 46.5679 198.485 46.5092 198.675C46.4506 198.864 46.3551 199.039 46.2282 199.191C46.1014 199.343 45.9457 199.468 45.7704 199.559C45.595 199.65 45.4034 199.705 45.2067 199.721L39.4421 200.184C39.08 200.213 38.7198 200.108 38.4294 199.889C38.139 199.669 37.9383 199.351 37.8652 198.994L30.4917 161.52C30.4716 161.406 30.4115 161.303 30.3223 161.23C30.2331 161.157 30.1208 161.118 30.0057 161.121H30.0037C29.8882 161.119 29.7757 161.158 29.6867 161.232C29.5976 161.306 29.538 161.409 29.5187 161.524L22.4255 199.072C22.3584 199.411 22.1761 199.717 21.9099 199.937C21.6436 200.157 21.3097 200.278 20.965 200.278Z" fill="#2F2E41"/>
<path d="M30.366 99.1784C34.8532 99.1784 38.4907 95.5245 38.4907 91.0171C38.4907 86.5098 34.8532 82.8559 30.366 82.8559C25.8789 82.8559 22.2413 86.5098 22.2413 91.0171C22.2413 95.5245 25.8789 99.1784 30.366 99.1784Z" fill="#A0616A"/>
<path d="M27.6418 152.266C23.7694 152.266 19.7919 151.244 16.4946 148.221C16.3192 148.061 16.1837 147.862 16.0993 147.64C16.0148 147.417 15.9837 147.178 16.0085 146.942C16.3615 143.756 18.0734 127.31 17.1093 116.324C16.9212 114.272 17.2104 112.204 17.9541 110.283C18.6979 108.363 19.8758 106.642 21.395 105.257C22.8875 103.875 24.6793 102.861 26.629 102.294C28.5787 101.727 30.6329 101.623 32.6295 101.989C32.7307 102.008 32.8319 102.027 32.9332 102.046C39.4378 103.311 43.9572 109.358 43.4459 116.112C42.6996 125.968 42.0307 139.299 43.0811 146.838C43.1246 147.146 43.071 147.46 42.9277 147.737C42.7845 148.013 42.5588 148.237 42.2823 148.378C39.8923 149.591 33.9045 152.266 27.6418 152.266Z" fill="#319795"/>
<path d="M38.2435 119.545C38.0529 119.418 37.8918 119.25 37.7714 119.055C37.651 118.859 37.574 118.64 37.5457 118.412L36.5558 110.44C36.2416 109.306 36.3877 108.094 36.9621 107.068C37.5365 106.043 38.4924 105.288 39.62 104.969C40.7477 104.65 41.9552 104.794 42.9778 105.368C44.0004 105.942 44.7547 106.9 45.0752 108.032L48.3356 115.395C48.4286 115.606 48.4755 115.833 48.473 116.063C48.4704 116.293 48.4186 116.52 48.321 116.728C48.2233 116.936 48.0822 117.121 47.9072 117.269C47.7322 117.417 47.5275 117.526 47.3069 117.588L39.5539 119.755C39.3333 119.817 39.102 119.83 38.8759 119.794C38.6497 119.758 38.434 119.673 38.2435 119.545Z" fill="#319795"/>
<path d="M27.5298 99.0631C26.7608 99.0775 25.9965 98.9386 25.2813 98.6545C24.9666 98.5327 24.6399 98.4325 24.3257 98.3106C21.5515 97.234 19.724 94.2661 19.6585 91.2793C19.593 88.2926 21.1329 85.3936 23.4194 83.4832C25.7059 81.5727 28.6674 80.5919 31.633 80.365C34.8273 80.1207 38.4243 80.9344 40.2093 83.6067C40.6844 84.318 41.0167 85.181 40.7352 86.0398C40.6508 86.299 40.5002 86.5313 40.2984 86.7137C39.5013 87.4261 38.7066 86.8904 37.8939 86.8431C36.777 86.778 35.7738 87.6862 35.4132 88.7501C35.0526 89.814 35.2114 90.9852 35.5025 92.0704C35.7243 92.7233 35.8641 93.4015 35.9187 94.0893C35.9422 94.4341 35.8776 94.7793 35.7311 95.0921C35.5846 95.4048 35.361 95.6748 35.0815 95.8765C34.3835 96.3003 33.467 96.055 32.7686 95.6319C32.0702 95.2088 31.4668 94.6205 30.7124 94.3092C29.9581 93.9978 28.9446 94.0669 28.5055 94.7572C28.366 95.0084 28.2716 95.2823 28.2265 95.5664C27.8329 97.3678 27.9234 97.2617 27.5298 99.0631Z" fill="#2F2E41"/>
<path d="M224.284 142.426L179.276 167.785C177.975 168.517 176.438 168.7 175.003 168.294C173.568 167.888 172.351 166.928 171.621 165.622L151.068 128.817C150.34 127.51 150.158 125.966 150.562 124.525C150.966 123.083 151.922 121.861 153.222 121.127L198.229 95.7678C199.53 95.0366 201.067 94.8537 202.502 95.2592C203.937 95.6648 205.154 96.6256 205.885 97.931L226.437 134.736C227.165 136.043 227.347 137.587 226.943 139.029C226.54 140.47 225.583 141.692 224.284 142.426Z" fill="white"/>
<path d="M224.284 142.426L179.276 167.785C177.975 168.517 176.438 168.7 175.003 168.294C173.568 167.888 172.351 166.928 171.621 165.622L151.068 128.817C150.34 127.51 150.158 125.966 150.562 124.525C150.966 123.083 151.922 121.861 153.222 121.127L198.229 95.7678C199.53 95.0366 201.067 94.8537 202.502 95.2592C203.937 95.6648 205.154 96.6256 205.885 97.931L226.437 134.736C227.165 136.043 227.347 137.587 226.943 139.029C226.54 140.47 225.583 141.692 224.284 142.426ZM153.545 121.706C152.399 122.354 151.555 123.432 151.199 124.704C150.842 125.977 151.003 127.339 151.645 128.492L172.198 165.297C172.842 166.449 173.916 167.297 175.182 167.655C176.449 168.012 177.805 167.851 178.953 167.206L223.96 141.847C225.107 141.199 225.951 140.121 226.307 138.849C226.663 137.577 226.502 136.215 225.86 135.061L205.308 98.2561C204.663 97.1043 203.589 96.2565 202.323 95.8987C201.057 95.5408 199.701 95.7022 198.553 96.3474L153.545 121.706Z" fill="#E6E6E6"/>
<path d="M199.285 109.703L176.57 122.501C176.373 122.618 176.139 122.655 175.916 122.604C175.692 122.554 175.496 122.421 175.367 122.231C175.304 122.131 175.261 122.018 175.243 121.901C175.224 121.784 175.229 121.664 175.258 121.549C175.287 121.434 175.339 121.326 175.411 121.232C175.483 121.137 175.573 121.059 175.676 121.001L198.798 107.973C199.935 108.216 199.947 109.33 199.285 109.703Z" fill="#CCCCCC"/>
<path d="M201.52 113.705L178.805 126.503C178.608 126.62 178.374 126.657 178.151 126.607C177.927 126.557 177.731 126.423 177.602 126.233C177.538 126.133 177.496 126.021 177.477 125.903C177.459 125.786 177.464 125.666 177.493 125.551C177.522 125.436 177.574 125.328 177.646 125.234C177.718 125.14 177.808 125.061 177.911 125.003L201.033 111.975C202.17 112.218 202.182 113.332 201.52 113.705Z" fill="#CCCCCC"/>
<path d="M175.167 131.549L168.235 135.455C168.009 135.582 167.741 135.614 167.491 135.543C167.242 135.473 167.03 135.305 166.903 135.078L162.314 126.861C162.187 126.633 162.156 126.365 162.226 126.114C162.296 125.863 162.463 125.65 162.689 125.522L169.621 121.616C169.848 121.489 170.115 121.457 170.365 121.528C170.615 121.598 170.826 121.766 170.954 121.993L175.542 130.21C175.669 130.438 175.701 130.706 175.631 130.957C175.56 131.208 175.394 131.421 175.167 131.549Z" fill="#CCCCCC"/>
<path d="M206.03 121.937L171.363 141.469C171.166 141.586 170.932 141.623 170.708 141.573C170.485 141.523 170.289 141.389 170.16 141.199C170.096 141.099 170.054 140.987 170.035 140.87C170.017 140.752 170.022 140.632 170.051 140.517C170.08 140.402 170.132 140.294 170.204 140.2C170.276 140.106 170.366 140.027 170.469 139.969L205.543 120.207C206.68 120.45 206.692 121.564 206.03 121.937Z" fill="#CCCCCC"/>
<path d="M208.265 125.94L173.599 145.473C173.401 145.589 173.167 145.626 172.944 145.576C172.72 145.526 172.524 145.392 172.395 145.203C172.332 145.102 172.29 144.99 172.271 144.873C172.252 144.756 172.257 144.636 172.286 144.521C172.315 144.406 172.367 144.298 172.439 144.203C172.511 144.109 172.601 144.03 172.704 143.972L207.779 124.21C208.916 124.453 208.928 125.567 208.265 125.94Z" fill="#CCCCCC"/>
<path d="M210.499 129.941L175.833 149.474C175.635 149.59 175.401 149.627 175.178 149.577C174.955 149.527 174.758 149.393 174.629 149.203C174.566 149.103 174.524 148.991 174.505 148.874C174.486 148.756 174.492 148.637 174.52 148.521C174.549 148.406 174.601 148.298 174.673 148.204C174.745 148.11 174.835 148.031 174.938 147.973L210.013 128.211C211.15 128.454 211.162 129.568 210.499 129.941Z" fill="#CCCCCC"/>
<path d="M212.735 133.944L178.068 153.477C177.871 153.593 177.637 153.63 177.413 153.58C177.19 153.53 176.994 153.396 176.865 153.206C176.801 153.106 176.759 152.994 176.74 152.877C176.722 152.759 176.727 152.64 176.756 152.525C176.785 152.409 176.837 152.301 176.909 152.207C176.981 152.113 177.071 152.034 177.174 151.976L212.248 132.214C213.385 132.457 213.397 133.571 212.735 133.944Z" fill="#CCCCCC"/>
<path d="M214.969 137.945L180.302 157.478C180.105 157.594 179.871 157.631 179.648 157.581C179.424 157.531 179.228 157.397 179.099 157.208C179.036 157.107 178.993 156.995 178.975 156.878C178.956 156.761 178.961 156.641 178.99 156.526C179.019 156.41 179.071 156.302 179.143 156.208C179.215 156.114 179.305 156.035 179.408 155.977L214.482 136.215C215.62 136.458 215.631 137.572 214.969 137.945Z" fill="#CCCCCC"/>
<path d="M208.921 152.939C209.11 152.52 209.205 152.066 209.2 151.606C209.195 151.147 209.089 150.695 208.891 150.281C208.693 149.867 208.407 149.502 208.053 149.211C207.7 148.92 207.287 148.711 206.844 148.597L205.901 137.474L201.367 141.067L202.957 151.079C202.817 151.839 202.96 152.625 203.358 153.287C203.756 153.948 204.382 154.44 205.117 154.67C205.852 154.899 206.645 154.849 207.346 154.53C208.048 154.211 208.608 153.645 208.921 152.939Z" fill="#FFB8B8"/>
<path d="M205.986 147.432L202.221 147.883C202.03 147.906 201.836 147.889 201.651 147.833C201.467 147.778 201.296 147.684 201.149 147.559C201.002 147.433 200.883 147.279 200.798 147.105C200.714 146.931 200.666 146.742 200.657 146.548L200.108 133.788L192.97 114.201C192.684 113.593 192.554 112.924 192.591 112.252C192.628 111.581 192.831 110.93 193.182 110.357C193.357 110.081 193.558 109.821 193.781 109.582C194.22 109.107 194.767 108.746 195.375 108.529C195.984 108.312 196.635 108.246 197.274 108.336C197.933 108.424 198.561 108.669 199.107 109.05C199.652 109.43 200.1 109.936 200.411 110.526L205.066 120.324C207.013 124.422 207.933 128.936 207.744 133.473L207.219 146.096C207.205 146.426 207.076 146.741 206.854 146.985C206.632 147.229 206.331 147.387 206.005 147.43L205.986 147.432Z" fill="#319795"/>
<path d="M219.359 202.581L215.868 204.12L208.296 191.327L213.449 189.055L219.359 202.581Z" fill="#FFB8B8"/>
<path d="M221.735 205.588L210.478 210.551L210.416 210.408C210.163 209.83 210.026 209.208 210.013 208.577C210 207.946 210.111 207.319 210.339 206.73C210.567 206.142 210.909 205.605 211.343 205.15C211.778 204.694 212.298 204.329 212.874 204.075L219.749 201.044L221.735 205.588Z" fill="#2F2E41"/>
<path d="M172.489 206.839H168.676L166.863 192.066L172.49 192.067L172.489 206.839Z" fill="#FFB8B8"/>
<path d="M173.461 210.551L161.168 210.551V210.395C161.168 209.764 161.291 209.139 161.532 208.555C161.772 207.972 162.125 207.442 162.569 206.996C163.013 206.55 163.541 206.196 164.122 205.954C164.702 205.713 165.324 205.588 165.953 205.588L173.461 205.589L173.461 210.551Z" fill="#2F2E41"/>
<path d="M209.609 201.789L188.37 154.178C188.332 154.089 188.267 154.014 188.184 153.963C188.102 153.913 188.005 153.89 187.909 153.896C187.812 153.903 187.72 153.94 187.646 154.002C187.571 154.064 187.517 154.147 187.492 154.241L174.551 200.227C174.465 200.549 174.268 200.829 173.995 201.018C173.722 201.207 173.391 201.292 173.061 201.257L165.993 200.547C165.629 200.509 165.294 200.329 165.06 200.047C164.825 199.764 164.709 199.401 164.737 199.035C166.985 170.949 170.529 144.441 181.145 127.089L181.201 126.996L197.259 130.159L218.698 198.734C218.804 199.087 218.768 199.468 218.598 199.795C218.427 200.122 218.137 200.369 217.788 200.483L211.323 202.57C210.992 202.679 210.632 202.658 210.315 202.514C209.998 202.369 209.746 202.11 209.609 201.789Z" fill="#2F2E41"/>
<path d="M188.963 102.7C193.181 102.7 196.601 99.265 196.601 95.0275C196.601 90.79 193.181 87.3549 188.963 87.3549C184.744 87.3549 181.325 90.79 181.325 95.0275C181.325 99.265 184.744 102.7 188.963 102.7Z" fill="#FFB8B8"/>
<path d="M180.158 128.417L180.061 128.397L180.038 128.3C179.008 123.935 178.984 119.172 179.965 114.143C180.462 111.572 181.847 109.261 183.874 107.615C185.902 105.969 188.442 105.095 191.049 105.146C193.877 105.204 196.576 106.345 198.594 108.336C200.612 110.327 201.797 113.017 201.905 115.856C202.232 124.506 198.713 132.005 198.678 132.08L198.625 132.19L180.158 128.417Z" fill="#319795"/>
<path d="M159.682 143.014C160.134 142.947 160.566 142.781 160.948 142.528C161.329 142.275 161.651 141.941 161.89 141.549C162.129 141.158 162.28 140.718 162.332 140.262C162.383 139.806 162.335 139.344 162.19 138.908L170.988 132.088L165.525 130.205L158.008 136.971C157.296 137.264 156.716 137.81 156.378 138.505C156.039 139.199 155.966 139.994 156.173 140.739C156.379 141.484 156.85 142.127 157.497 142.546C158.144 142.965 158.921 143.132 159.682 143.014Z" fill="#FFB8B8"/>
<path d="M164.487 137.87C164.201 138.04 163.863 138.102 163.536 138.044C163.208 137.986 162.912 137.812 162.7 137.554L160.284 134.618C160.161 134.469 160.07 134.296 160.017 134.11C159.964 133.924 159.949 133.729 159.975 133.537C160 133.345 160.065 133.161 160.164 132.995C160.264 132.83 160.397 132.686 160.554 132.575L170.935 125.2L183.461 108.564C183.815 107.994 184.305 107.521 184.887 107.188C185.468 106.856 186.124 106.675 186.793 106.662C187.119 106.66 187.444 106.688 187.765 106.747C188.401 106.86 189 107.127 189.511 107.523C190.022 107.919 190.43 108.434 190.7 109.022C190.983 109.626 191.119 110.289 191.096 110.956C191.073 111.623 190.891 112.275 190.567 112.857L181.292 127.945L181.272 127.978L164.487 137.87Z" fill="#319795"/>
<path d="M190.329 94.5514C189.766 93.6212 188.523 93.3584 187.445 93.4645C186.366 93.5707 185.317 93.9515 184.234 93.943C181.224 93.9196 178.902 90.2355 180.167 87.4928C181.204 85.2435 183.796 84.2558 186.14 83.4806C191.055 81.8553 196.701 80.2937 201.161 82.929C202.582 83.7937 203.748 85.0238 204.537 86.4923C205.327 87.9609 205.712 89.6146 205.653 91.2826C205.553 93.3567 204.762 95.4871 205.431 97.4518C206.202 99.7185 208.648 100.935 210.96 101.523C215.013 102.554 219.285 102.388 223.363 103.313C227.441 104.238 231.619 106.694 232.719 110.745C233.441 113.407 232.687 116.271 231.44 118.729C230.167 121.235 228.398 123.455 226.241 125.251C224.084 127.047 221.585 128.382 218.897 129.174C216.209 129.966 213.388 130.199 210.607 129.857C207.826 129.516 205.144 128.608 202.725 127.189C197.795 124.297 194.236 119.41 192.114 114.087C190.911 110.982 190.064 107.749 189.59 104.451C189.114 101.364 189.518 98.2439 190.378 95.2421C190.419 95.13 190.436 95.0105 190.427 94.8914C190.419 94.7724 190.385 94.6565 190.329 94.5514Z" fill="#2F2E41"/>
</g>
<defs>
<clipPath id="clip0_101_2">
<rect width="233" height="211" fill="white"/>
</clipPath>
</defs>
</svg>
